<mxfile host="Electron" modified="2024-04-19T23:13:09.265Z" agent="Mozilla/5.0 (X11; Linux x86_64) AppleWebKit/537.36 (KHTML, like Gecko) draw.io/24.2.5 Chrome/120.0.6099.109 Electron/28.1.0 Safari/537.36" etag="YzEurmWROUq0oQUVxeY8" version="24.2.5" type="device">
  <diagram name="Page-1" id="CuGK8EdZ_OBCJnu9gnQl">
    <mxGraphModel dx="1364" dy="838" grid="1" gridSize="10" guides="1" tooltips="1" connect="1" arrows="1" fold="1" page="1" pageScale="1" pageWidth="850" pageHeight="1100" background="#FFFFFF" math="0" shadow="0">
      <root>
        <mxCell id="0" />
        <mxCell id="1" parent="0" />
        <mxCell id="4q8ChmGBFjCSsPTMsiG7-35" style="edgeStyle=none;rounded=0;orthogonalLoop=1;jettySize=auto;html=1;exitX=0.5;exitY=1;exitDx=0;exitDy=0;entryX=0.5;entryY=0;entryDx=0;entryDy=0;fontFamily=Helvetica;fontSize=12;fontColor=#ffffff;fontStyle=1;strokeWidth=4;strokeColor=#000000;" parent="1" source="4q8ChmGBFjCSsPTMsiG7-2" target="4q8ChmGBFjCSsPTMsiG7-31" edge="1">
          <mxGeometry relative="1" as="geometry" />
        </mxCell>
        <mxCell id="4q8ChmGBFjCSsPTMsiG7-2" value="Prenda" style="swimlane;fontStyle=1;align=center;verticalAlign=top;childLayout=stackLayout;horizontal=1;startSize=26;horizontalStack=0;resizeParent=1;resizeParentMax=0;resizeLast=0;collapsible=1;marginBottom=0;whiteSpace=wrap;html=1;fillColor=#0050ef;fontColor=#ffffff;strokeColor=#001DBC;strokeWidth=2;" parent="1" vertex="1">
          <mxGeometry x="340" y="50" width="160" height="122" as="geometry" />
        </mxCell>
        <mxCell id="4q8ChmGBFjCSsPTMsiG7-3" value="- tipo&lt;br&gt;- material&lt;br&gt;- colorPrincipal&lt;br&gt;- colorSecundario" style="text;strokeColor=#10739e;fillColor=#b1ddf0;align=left;verticalAlign=top;spacingLeft=4;spacingRight=4;overflow=hidden;rotatable=0;points=[[0,0.5],[1,0.5]];portConstraint=eastwest;fontColor=#000000;fontStyle=1;whiteSpace=wrap;html=1;" parent="4q8ChmGBFjCSsPTMsiG7-2" vertex="1">
          <mxGeometry y="26" width="160" height="70" as="geometry" />
        </mxCell>
        <mxCell id="4q8ChmGBFjCSsPTMsiG7-5" value="+ method(type): type" style="text;strokeColor=#10739e;fillColor=#b1ddf0;align=left;verticalAlign=top;spacingLeft=4;spacingRight=4;overflow=hidden;rotatable=0;points=[[0,0.5],[1,0.5]];portConstraint=eastwest;whiteSpace=wrap;html=1;fontColor=#000000;fontStyle=1" parent="4q8ChmGBFjCSsPTMsiG7-2" vertex="1">
          <mxGeometry y="96" width="160" height="26" as="geometry" />
        </mxCell>
        <mxCell id="4q8ChmGBFjCSsPTMsiG7-19" value="&amp;lt;enum&amp;gt; Material" style="swimlane;fontStyle=1;align=center;verticalAlign=top;childLayout=stackLayout;horizontal=1;startSize=26;horizontalStack=0;resizeParent=1;resizeParentMax=0;resizeLast=0;collapsible=1;marginBottom=0;whiteSpace=wrap;html=1;fillColor=#0050ef;fontColor=#ffffff;strokeColor=#001DBC;strokeWidth=2;" parent="1" vertex="1">
          <mxGeometry x="120" y="240" width="160" height="82" as="geometry" />
        </mxCell>
        <mxCell id="4q8ChmGBFjCSsPTMsiG7-20" value="- material" style="text;strokeColor=#10739e;fillColor=#b1ddf0;align=left;verticalAlign=top;spacingLeft=4;spacingRight=4;overflow=hidden;rotatable=0;points=[[0,0.5],[1,0.5]];portConstraint=eastwest;whiteSpace=wrap;html=1;fontColor=#000000;fontStyle=1" parent="4q8ChmGBFjCSsPTMsiG7-19" vertex="1">
          <mxGeometry y="26" width="160" height="30" as="geometry" />
        </mxCell>
        <mxCell id="4q8ChmGBFjCSsPTMsiG7-21" value="- validar(Material): void" style="text;strokeColor=#10739e;fillColor=#b1ddf0;align=left;verticalAlign=top;spacingLeft=4;spacingRight=4;overflow=hidden;rotatable=0;points=[[0,0.5],[1,0.5]];portConstraint=eastwest;whiteSpace=wrap;html=1;fontColor=#000000;fontStyle=1" parent="4q8ChmGBFjCSsPTMsiG7-19" vertex="1">
          <mxGeometry y="56" width="160" height="26" as="geometry" />
        </mxCell>
        <mxCell id="4q8ChmGBFjCSsPTMsiG7-30" style="edgeStyle=orthogonalEdgeStyle;rounded=0;orthogonalLoop=1;jettySize=auto;html=1;exitX=0.5;exitY=1;exitDx=0;exitDy=0;entryX=0.5;entryY=0;entryDx=0;entryDy=0;fontFamily=Helvetica;fontSize=12;fontColor=#ffffff;fontStyle=1;strokeWidth=4;strokeColor=#000000;" parent="1" source="4q8ChmGBFjCSsPTMsiG7-22" target="4q8ChmGBFjCSsPTMsiG7-25" edge="1">
          <mxGeometry relative="1" as="geometry" />
        </mxCell>
        <mxCell id="4q8ChmGBFjCSsPTMsiG7-22" value="&amp;lt;enum&amp;gt; Tipo" style="swimlane;fontStyle=1;align=center;verticalAlign=top;childLayout=stackLayout;horizontal=1;startSize=26;horizontalStack=0;resizeParent=1;resizeParentMax=0;resizeLast=0;collapsible=1;marginBottom=0;whiteSpace=wrap;html=1;fillColor=#0050ef;fontColor=#ffffff;strokeColor=#001DBC;strokeWidth=2;" parent="1" vertex="1">
          <mxGeometry x="560" y="240" width="160" height="92" as="geometry" />
        </mxCell>
        <mxCell id="4q8ChmGBFjCSsPTMsiG7-23" value="- tipo&lt;div&gt;- categoria&lt;/div&gt;" style="text;strokeColor=#10739e;fillColor=#b1ddf0;align=left;verticalAlign=top;spacingLeft=4;spacingRight=4;overflow=hidden;rotatable=0;points=[[0,0.5],[1,0.5]];portConstraint=eastwest;whiteSpace=wrap;html=1;fontColor=#000000;fontStyle=1" parent="4q8ChmGBFjCSsPTMsiG7-22" vertex="1">
          <mxGeometry y="26" width="160" height="40" as="geometry" />
        </mxCell>
        <mxCell id="4q8ChmGBFjCSsPTMsiG7-24" value="- validar(Tipo): void" style="text;strokeColor=#10739e;fillColor=#b1ddf0;align=left;verticalAlign=top;spacingLeft=4;spacingRight=4;overflow=hidden;rotatable=0;points=[[0,0.5],[1,0.5]];portConstraint=eastwest;whiteSpace=wrap;html=1;fontColor=#000000;fontStyle=1" parent="4q8ChmGBFjCSsPTMsiG7-22" vertex="1">
          <mxGeometry y="66" width="160" height="26" as="geometry" />
        </mxCell>
        <mxCell id="4q8ChmGBFjCSsPTMsiG7-25" value="&amp;lt;enum&amp;gt; Categoria" style="swimlane;fontStyle=1;align=center;verticalAlign=top;childLayout=stackLayout;horizontal=1;startSize=26;horizontalStack=0;resizeParent=1;resizeParentMax=0;resizeLast=0;collapsible=1;marginBottom=0;whiteSpace=wrap;html=1;fillColor=#0050ef;fontColor=#ffffff;strokeColor=#001DBC;strokeWidth=2;" parent="1" vertex="1">
          <mxGeometry x="560" y="400" width="160" height="82" as="geometry" />
        </mxCell>
        <mxCell id="4q8ChmGBFjCSsPTMsiG7-26" value="&lt;span style=&quot;background-color: initial;&quot;&gt;- categoria&lt;/span&gt;" style="text;strokeColor=#10739e;fillColor=#b1ddf0;align=left;verticalAlign=top;spacingLeft=4;spacingRight=4;overflow=hidden;rotatable=0;points=[[0,0.5],[1,0.5]];portConstraint=eastwest;whiteSpace=wrap;html=1;fontColor=#000000;fontStyle=1" parent="4q8ChmGBFjCSsPTMsiG7-25" vertex="1">
          <mxGeometry y="26" width="160" height="30" as="geometry" />
        </mxCell>
        <mxCell id="4q8ChmGBFjCSsPTMsiG7-27" value="- validar(Categoria): void" style="text;strokeColor=#10739e;fillColor=#b1ddf0;align=left;verticalAlign=top;spacingLeft=4;spacingRight=4;overflow=hidden;rotatable=0;points=[[0,0.5],[1,0.5]];portConstraint=eastwest;whiteSpace=wrap;html=1;fontColor=#000000;fontStyle=1" parent="4q8ChmGBFjCSsPTMsiG7-25" vertex="1">
          <mxGeometry y="56" width="160" height="26" as="geometry" />
        </mxCell>
        <mxCell id="4q8ChmGBFjCSsPTMsiG7-28" style="edgeStyle=orthogonalEdgeStyle;rounded=0;orthogonalLoop=1;jettySize=auto;html=1;exitX=0;exitY=0.5;exitDx=0;exitDy=0;entryX=0.5;entryY=0;entryDx=0;entryDy=0;fontFamily=Helvetica;fontSize=12;fontColor=#ffffff;fontStyle=1;strokeWidth=4;strokeColor=#000000;" parent="1" source="4q8ChmGBFjCSsPTMsiG7-3" target="4q8ChmGBFjCSsPTMsiG7-19" edge="1">
          <mxGeometry relative="1" as="geometry" />
        </mxCell>
        <mxCell id="4q8ChmGBFjCSsPTMsiG7-29" style="edgeStyle=orthogonalEdgeStyle;rounded=0;orthogonalLoop=1;jettySize=auto;html=1;exitX=1;exitY=0.5;exitDx=0;exitDy=0;fontFamily=Helvetica;fontSize=12;fontColor=#ffffff;fontStyle=1;strokeWidth=4;strokeColor=#000000;" parent="1" source="4q8ChmGBFjCSsPTMsiG7-3" target="4q8ChmGBFjCSsPTMsiG7-22" edge="1">
          <mxGeometry relative="1" as="geometry" />
        </mxCell>
        <mxCell id="4q8ChmGBFjCSsPTMsiG7-31" value="&amp;lt;enum&amp;gt; Color" style="swimlane;fontStyle=1;align=center;verticalAlign=top;childLayout=stackLayout;horizontal=1;startSize=26;horizontalStack=0;resizeParent=1;resizeParentMax=0;resizeLast=0;collapsible=1;marginBottom=0;whiteSpace=wrap;html=1;fillColor=#0050ef;fontColor=#ffffff;strokeColor=#001DBC;strokeWidth=2;" parent="1" vertex="1">
          <mxGeometry x="340" y="240" width="160" height="82" as="geometry" />
        </mxCell>
        <mxCell id="4q8ChmGBFjCSsPTMsiG7-32" value="- color" style="text;strokeColor=#10739e;fillColor=#b1ddf0;align=left;verticalAlign=top;spacingLeft=4;spacingRight=4;overflow=hidden;rotatable=0;points=[[0,0.5],[1,0.5]];portConstraint=eastwest;whiteSpace=wrap;html=1;fontColor=#000000;fontStyle=1" parent="4q8ChmGBFjCSsPTMsiG7-31" vertex="1">
          <mxGeometry y="26" width="160" height="30" as="geometry" />
        </mxCell>
        <mxCell id="4q8ChmGBFjCSsPTMsiG7-33" value="- validar(Color): void" style="text;strokeColor=#10739e;fillColor=#b1ddf0;align=left;verticalAlign=top;spacingLeft=4;spacingRight=4;overflow=hidden;rotatable=0;points=[[0,0.5],[1,0.5]];portConstraint=eastwest;whiteSpace=wrap;html=1;fontColor=#000000;fontStyle=1" parent="4q8ChmGBFjCSsPTMsiG7-31" vertex="1">
          <mxGeometry y="56" width="160" height="26" as="geometry" />
        </mxCell>
      </root>
    </mxGraphModel>
  </diagram>
</mxfile>
